<?xml version="1.0" encoding="UTF-8"?>
<svg id="Layer_2" data-name="Layer 2" xmlns="http://www.w3.org/2000/svg" viewBox="0 0 459 129.46">
  <defs>
    <style>
      .cls-1 {
        fill: #7500c1;
      }

      .cls-1, .cls-2 {
        stroke-width: 0px;
      }

      .cls-2 {
        fill: #fff;
      }
    </style>
  </defs>
  <g id="Layer_1-2" data-name="Layer 1">
    <g>
      <g>
        <path class="cls-1" d="M88.38,0h-37.24c-11.69,0-22.3,6.28-28.14,16.24L4.38,48.49c-5.85,9.96-5.85,22.51,0,32.47l18.62,32.26c5.85,9.96,16.45,16.24,28.14,16.24h37.24c11.69,0,22.3-6.28,28.14-16.24l18.62-32.26c5.85-9.96,5.85-22.51,0-32.47l-18.62-32.26C110.68,6.28,99.85,0,88.38,0Z"/>
        <g>
          <path class="cls-2" d="M71.49,103.05c-5.41-5.41-16.02-20.13,4.55-39.4l17.1,19.05c1.3,1.52,1.3,3.68-.22,4.98l-16.67,15.37c-1.3,1.52-3.46,1.52-4.76,0h0Z"/>
          <path class="cls-2" d="M92.28,42l-1.52-1.73-9.09,8.01c-1.73,1.52-3.9,2.38-6.28,2.38h0c-2.38,0-4.33-.87-5.85-2.6s-2.16-3.9-1.95-6.06c.22-2.38,1.3-4.33,3.03-6.06l8.88-8.01-1.73-1.73c-.65-.65-1.52-1.08-2.38-1.08s-1.52.22-2.16.87l-17.97,16.67c-12.34,11.26-12.99,30.31-1.73,42.65l.43.65,11.69,12.77c-.43-.43-.65-1.08-.87-1.52-.87-1.52-1.52-3.03-1.95-4.55,0-.22,0-.43-.22-.43,0-.22,0-.43-.22-.43v-.22c0-.43-.22-.87-.22-1.08-.22-.65-.22-1.3-.22-1.73v-3.68c0-.43,0-1.08.22-1.52v-.65c0-.43.22-.87.22-1.3.65-3.46,2.38-6.93,4.33-9.74,1.95-3.03,4.55-5.63,7.14-8.01h0l.22-.22.65-.65,17.32-16.02c1.3-1.52,1.52-3.68.22-4.98h0Z"/>
          <path class="cls-2" d="M80.59,29.23l-8.88,8.01c-1.52,1.3-2.38,3.03-2.6,4.98-.22,1.95.43,3.68,1.52,4.98,1.08,1.3,2.81,1.95,4.76,1.95s3.68-.65,5.2-1.95l9.09-8.01-9.09-9.96h0ZM75.82,45.68h-1.08c-2.6-.87-2.6-4.55.22-5.2h1.08c2.6.87,2.38,4.55-.22,5.2Z"/>
        </g>
      </g>
      <g>
        <path class="cls-1" d="M177.79,92.01V29.01h9.31v63h-9.31ZM186.45,76.42v-11.26h1.3l18.83-19.7h11.26l-21.43,22.51h-1.52l-8.44,8.44ZM207.45,92.01l-16.89-22.08,6.28-6.49,21.86,28.58h-11.26Z"/>
        <path class="cls-1" d="M238.84,93.09c-3.03,0-5.63-.65-8.01-1.73-2.38-1.08-4.33-2.6-5.63-4.76-1.3-2.16-2.16-4.76-2.16-7.79,0-2.6.43-4.76,1.52-6.49s2.38-3.03,4.11-4.11c1.73-1.08,3.68-1.73,5.85-2.16s4.33-.87,6.71-1.08c2.81-.43,4.98-.65,6.71-.87,1.73-.22,3.03-.65,3.68-1.08s1.3-1.3,1.3-2.38v-.22c0-1.73-.43-3.25-1.08-4.33s-1.73-2.16-3.03-2.81-3.03-.87-4.98-.87-3.68.22-5.2.87c-1.52.65-2.6,1.52-3.68,2.38-.87,1.08-1.52,2.16-1.95,3.25l-8.66-1.73c.87-2.81,2.16-5.2,4.11-6.93,1.95-1.73,4.11-3.25,6.71-4.11,2.6-.87,5.41-1.3,8.44-1.3,2.16,0,4.11.22,6.28.87,2.16.43,4.11,1.3,6.06,2.6s3.25,2.81,4.33,4.98,1.73,4.76,1.73,7.79v31.17h-8.88v-6.49h-.43c-.65,1.3-1.52,2.38-2.6,3.46s-2.6,2.16-4.55,2.81c-1.95.65-4.11,1.08-6.71,1.08ZM240.78,85.73c2.6,0,4.76-.43,6.49-1.52s3.03-2.38,4.11-3.9,1.3-3.25,1.3-5.2v-5.85c-.22.22-.87.65-1.73.87s-1.95.43-3.03.65-2.38.43-3.46.65-2.16.22-3.03.43c-1.73.22-3.25.65-4.76,1.08s-2.6,1.3-3.46,2.16-1.3,2.16-1.3,3.9c0,1.52.43,2.6,1.08,3.68s1.73,1.73,3.03,2.16c1.52.65,3.03.87,4.76.87Z"/>
        <path class="cls-1" d="M287.33,93.09c-3.03,0-5.63-.65-8.01-1.73-2.38-1.08-4.33-2.6-5.63-4.76-1.3-2.16-2.16-4.76-2.16-7.79,0-2.6.43-4.76,1.52-6.49s2.38-3.03,4.11-4.11,3.68-1.73,5.85-2.16,4.33-.87,6.71-1.08c2.81-.43,4.98-.65,6.71-.87,1.73-.22,3.03-.65,3.68-1.08s1.3-1.3,1.3-2.38v-.22c0-1.73-.43-3.25-1.08-4.33s-1.73-2.16-3.03-2.81-3.03-.87-4.98-.87-3.68.22-5.2.87-2.6,1.52-3.68,2.38-1.52,2.16-1.95,3.25l-8.66-1.73c.87-2.81,2.16-5.2,4.11-6.93s4.11-3.25,6.71-4.11c2.6-.87,5.41-1.3,8.44-1.3,2.16,0,4.11.22,6.28.87,2.16.43,4.11,1.3,6.06,2.6s3.25,2.81,4.33,4.98,1.73,4.76,1.73,7.79v31.17h-8.88v-6.49h-.43c-.65,1.3-1.52,2.38-2.6,3.46-1.08,1.08-2.6,2.16-4.55,2.81s-4.33,1.08-6.71,1.08ZM289.28,85.73c2.6,0,4.76-.43,6.49-1.52s3.03-2.38,4.11-3.9,1.3-3.25,1.3-5.2v-5.85c-.22.22-.87.65-1.73.87s-1.95.43-3.03.65-2.38.43-3.46.65-2.16.22-3.03.43c-1.73.22-3.25.65-4.76,1.08s-2.6,1.3-3.46,2.16-1.3,2.16-1.3,3.9c0,1.52.43,2.6,1.08,3.68s1.73,1.73,3.03,2.16,3.03.87,4.76.87Z"/>
        <path class="cls-1" d="M339.28,93.09c-3.46,0-6.49-.43-9.09-1.52-2.6-1.08-4.76-2.6-6.49-4.55s-2.81-4.33-3.25-7.36l8.88-1.52c.65,2.38,1.73,4.33,3.46,5.41,1.73,1.08,3.9,1.73,6.71,1.73,3.03,0,5.41-.65,7.14-1.73,1.73-1.08,2.6-2.81,2.6-4.55,0-1.52-.65-2.81-1.73-3.68s-2.81-1.73-4.98-2.16l-7.79-1.73c-4.33-1.08-7.58-2.6-9.74-4.76-2.16-2.16-3.25-4.98-3.25-8.23,0-2.81.87-5.2,2.38-7.36s3.68-3.68,6.28-4.76,5.85-1.73,9.31-1.73,6.28.43,8.88,1.52,4.55,2.38,6.06,4.33,2.6,4.11,3.03,6.49l-8.44,1.52c-.43-1.73-1.52-3.25-2.81-4.55s-3.68-1.95-6.28-1.95-4.76.65-6.28,1.73-2.6,2.6-2.6,4.55c0,1.52.65,2.81,1.73,3.68s3.03,1.73,5.41,2.38l7.58,1.73c4.33,1.08,7.58,2.6,9.74,4.55,2.16,1.95,3.25,4.76,3.25,8.01,0,2.81-.87,5.41-2.38,7.58s-3.9,3.9-6.71,5.2c-2.81,1.3-6.93,1.73-10.61,1.73Z"/>
        <path class="cls-1" d="M377.39,64.51v27.49h-9.31V29.01h9.09v27.71h-1.52c1.3-4.11,3.46-7.14,6.06-9.09s5.85-3.03,9.53-3.03c3.25,0,6.06.65,8.44,1.95,2.38,1.3,4.33,3.25,5.63,6.06s1.95,5.85,1.95,9.74v29.66h-9.09v-28.36c0-3.46-.87-6.06-2.6-8.01s-4.11-2.81-7.14-2.81c-2.16,0-3.9.43-5.63,1.3s-3.03,2.16-3.9,3.9-1.52,4.11-1.52,6.49Z"/>
        <path class="cls-1" d="M417.44,109.32l1.73-7.58,1.95.22c1.52.22,2.81.43,3.9.22s2.16-.87,3.03-1.73,1.52-2.38,2.16-4.11l1.3-3.9-17.75-46.76h9.96l9.31,26.41c1.08,2.81,1.95,5.63,2.6,8.44.65,2.81,1.52,5.63,2.16,8.44h-2.81c.87-2.81,1.52-5.63,2.38-8.44.87-2.81,1.73-5.63,2.6-8.44l9.31-26.41h9.74l-20.57,53.47c-.87,2.38-2.16,4.55-3.46,6.06-1.3,1.52-3.03,2.81-4.76,3.68-1.73.87-3.9,1.3-6.49,1.3-1.3,0-2.6,0-3.68-.22s-1.95-.65-2.6-.65Z"/>
      </g>
    </g>
  </g>
</svg>