<?xml version="1.0" encoding="UTF-8"?>
<svg id="Layer_1" data-name="Layer 1" xmlns="http://www.w3.org/2000/svg" viewBox="0 0 260.87 79.36">
  <defs>
    <style>
      .cls-1 {
        fill: #7500c1;
      }

      .cls-1, .cls-2 {
        stroke-width: 0px;
      }

      .cls-2 {
        fill: #fff;
      }
    </style>
  </defs>
  <g>
    <path class="cls-1" d="M105.91,36.87l14.74,17.77h-8.08l-13.8-16.99v16.99h-6.32V20.37h6.32v15.32l13.37-15.32h7.84l-14.05,15.66v.83s0,0,0,0Z"/>
    <path class="cls-1" d="M140.84,31.44c1.84,1.6,2.76,3.85,2.76,6.76v16.45h-6.07v-2.1h-.88c-.78.85-1.83,1.52-3.13,2.01-1.31.49-2.7.73-4.16.73-2.74,0-4.91-.69-6.48-2.08-1.59-1.39-2.38-3.24-2.38-5.56s.82-4.33,2.44-5.75,3.95-2.13,6.95-2.13h7.58v-1.18c0-1.28-.38-2.27-1.13-2.99-.75-.72-1.91-1.08-3.48-1.08-1.34,0-2.43.28-3.28.86s-1.35,1.38-1.52,2.42h-6.51c.26-2.61,1.4-4.72,3.43-6.34,2.02-1.62,4.68-2.42,7.98-2.42s6.02.8,7.86,2.4v-.02h0ZM134.53,49.38c1.13-.57,2.11-1.41,2.96-2.52v-2.74h-6.95c-1.21,0-2.14.25-2.79.76s-.98,1.25-.98,2.23.38,1.79,1.13,2.33c.75.53,1.74.81,2.99.81s2.52-.28,3.65-.86h0Z"/>
    <path class="cls-1" d="M167.33,31.44c1.84,1.6,2.76,3.85,2.76,6.76v16.45h-6.07v-2.1h-.88c-.78.85-1.83,1.52-3.13,2.01-1.31.49-2.7.73-4.16.73-2.74,0-4.91-.69-6.48-2.08-1.59-1.39-2.38-3.24-2.38-5.56s.82-4.33,2.44-5.75,3.95-2.13,6.95-2.13h7.58v-1.18c0-1.28-.38-2.27-1.13-2.99-.75-.72-1.91-1.08-3.48-1.08-1.34,0-2.43.28-3.28.86-.85.58-1.35,1.38-1.52,2.42h-6.51c.26-2.61,1.4-4.72,3.43-6.34,2.02-1.62,4.68-2.42,7.98-2.42s6.02.8,7.86,2.4v-.02h0ZM161.01,49.38c1.13-.57,2.11-1.41,2.96-2.52v-2.74h-6.95c-1.21,0-2.14.25-2.79.76s-.98,1.25-.98,2.23.38,1.79,1.13,2.33c.75.53,1.74.81,2.99.81s2.52-.28,3.65-.86h0Z"/>
    <path class="cls-1" d="M178.71,54.12c-1.67-.77-2.93-1.79-3.8-3.09-.87-1.28-1.34-2.72-1.44-4.28h6.12c.19.98.75,1.78,1.66,2.39.92.62,2.12.93,3.62.93,1.6,0,2.77-.28,3.52-.83s1.13-1.28,1.13-2.2-.28-1.49-.86-1.84-1.39-.57-2.47-.66l-4.31-.44c-2.54-.26-4.46-.98-5.75-2.18s-1.94-2.8-1.94-4.82c0-1.6.43-3.01,1.27-4.23.85-1.23,2.06-2.17,3.62-2.84,1.57-.67,3.4-1,5.48-1,3.13,0,5.59.68,7.37,2.05,1.78,1.37,2.78,3.26,3.01,5.68h-6.12c-.17-.78-.62-1.4-1.37-1.86s-1.73-.68-2.94-.68c-1.31,0-2.33.23-3.06.68s-1.1,1.11-1.1,1.96c0,.75.32,1.32.96,1.71.63.39,1.67.65,3.11.78l3.86.39c2.41.23,4.25.89,5.51,1.99,1.26,1.09,1.89,2.78,1.89,5.06,0,2.58-.96,4.63-2.89,6.17s-4.61,2.3-8.08,2.3c-2.35,0-4.36-.38-6.02-1.15h0Z"/>
    <path class="cls-1" d="M199.8,54.64V20.37h6.12v12.19h.88c.58-.98,1.51-1.81,2.76-2.49,1.26-.68,2.78-1.03,4.58-1.03,2.8,0,5.02.86,6.66,2.57,1.63,1.71,2.44,4.06,2.44,7.03v16h-6.12v-14c0-1.83-.46-3.24-1.37-4.23-.92-.99-2.2-1.49-3.86-1.49-1.86,0-3.32.63-4.38,1.89s-1.59,2.96-1.59,5.11v12.72h-6.12,0Z"/>
    <path class="cls-1" d="M229.86,64.43l5.82-12.43-10.28-22.32h6.81l5.04,11.7c.49,1.08.96,2.32,1.42,3.72h.83c.33-1.24.77-2.48,1.32-3.72l4.9-11.7h6.71l-15.76,34.75h-6.81,0Z"/>
  </g>
  <rect class="cls-1" x="6" y="6.45" width="66.49" height="66.46"/>
  <g>
    <path class="cls-2" d="M40.13,59.6c-2.82-2.81-8.32-10.47,2.35-20.34l8.9,9.85c.66.74.62,1.87-.11,2.55l-8.6,7.99c-.72.67-1.84.65-2.53-.05Z"/>
    <path class="cls-2" d="M50.91,27.92l-.8-.87-4.66,4.2c-.91.82-2.06,1.27-3.25,1.27h-.02c-1.2,0-2.29-.48-3.06-1.34s-1.13-1.98-1.01-3.18c.12-1.18.68-2.29,1.61-3.11l4.6-4.15-.89-.97c-.34-.36-.8-.55-1.25-.55-.41,0-.82.15-1.15.45l-9.34,8.57c-6.35,5.83-6.76,15.69-.94,22.03l.28.31,6.02,6.56c-.18-.27-.35-.55-.5-.83-.41-.75-.74-1.56-.98-2.38-.03-.08-.05-.17-.07-.25-.03-.08-.05-.17-.07-.25-.01-.03-.02-.06-.02-.08-.05-.21-.1-.41-.13-.61-.06-.32-.1-.63-.13-.95-.01-.09-.02-.19-.02-.29-.03-.53-.03-1.06.03-1.58.02-.25.05-.51.09-.75l.04-.29c.03-.23.1-.45.14-.68.38-1.83,1.22-3.54,2.26-5.07,1.06-1.53,2.35-2.88,3.71-4.13h.01s.07-.07.07-.07c.11-.1.22-.21.34-.31l9-8.26c.69-.64.74-1.71.1-2.4h0Z"/>
    <path class="cls-2" d="M44.89,21.36l-4.61,4.15c-.76.68-1.24,1.6-1.34,2.58-.09.96.19,1.86.8,2.53.61.67,1.48,1.05,2.44,1.06.98,0,1.94-.37,2.7-1.06l4.66-4.2-4.66-5.07h.01ZM42.34,29.83c-.2.05-.41.04-.6-.03-1.4-.5-1.29-2.36.15-2.7.2-.05.41-.04.6.03,1.4.5,1.29,2.36-.15,2.7Z"/>
  </g>
</svg>