<?xml version="1.0" encoding="utf-8"?>
<!-- Generator: Adobe Illustrator 28.4.1, SVG Export Plug-In . SVG Version: 6.00 Build 0)  -->
<svg version="1.1" id="Layer_1" xmlns="http://www.w3.org/2000/svg" xmlns:xlink="http://www.w3.org/1999/xlink" x="0px" y="0px"
	 viewBox="0 0 260.9 79.4" style="enable-background:new 0 0 260.9 79.4;" xml:space="preserve">
<style type="text/css">
	.st0{fill:#FFFFFF;}
</style>
<g>
	<path class="st0" d="M105.9,36.9l14.7,17.8h-8.1l-13.8-17v17h-6.3V20.4h6.3v15.3l13.4-15.3h7.8L105.9,36L105.9,36.9L105.9,36.9
		L105.9,36.9z"/>
	<path class="st0" d="M140.8,31.4c1.8,1.6,2.8,3.9,2.8,6.8v16.5h-6.1v-2.1h-0.9c-0.8,0.8-1.8,1.5-3.1,2c-1.3,0.5-2.7,0.7-4.2,0.7
		c-2.7,0-4.9-0.7-6.5-2.1c-1.6-1.4-2.4-3.2-2.4-5.6s0.8-4.3,2.4-5.8s3.9-2.1,6.9-2.1h7.6v-1.2c0-1.3-0.4-2.3-1.1-3s-1.9-1.1-3.5-1.1
		c-1.3,0-2.4,0.3-3.3,0.9s-1.4,1.4-1.5,2.4h-6.5c0.3-2.6,1.4-4.7,3.4-6.3c2-1.6,4.7-2.4,8-2.4S139,29.8,140.8,31.4L140.8,31.4
		L140.8,31.4L140.8,31.4z M134.5,49.4c1.1-0.6,2.1-1.4,3-2.5v-2.7h-6.9c-1.2,0-2.1,0.2-2.8,0.8s-1,1.2-1,2.2s0.4,1.8,1.1,2.3
		c0.7,0.5,1.7,0.8,3,0.8S133.4,50,134.5,49.4L134.5,49.4L134.5,49.4z"/>
	<path class="st0" d="M167.3,31.4c1.8,1.6,2.8,3.9,2.8,6.8v16.5H164v-2.1h-0.9c-0.8,0.8-1.8,1.5-3.1,2c-1.3,0.5-2.7,0.7-4.2,0.7
		c-2.7,0-4.9-0.7-6.5-2.1c-1.6-1.4-2.4-3.2-2.4-5.6s0.8-4.3,2.4-5.8s3.9-2.1,6.9-2.1h7.6v-1.2c0-1.3-0.4-2.3-1.1-3s-1.9-1.1-3.5-1.1
		c-1.3,0-2.4,0.3-3.3,0.9s-1.4,1.4-1.5,2.4H148c0.3-2.6,1.4-4.7,3.4-6.3c2-1.6,4.7-2.4,8-2.4S165.5,29.8,167.3,31.4L167.3,31.4
		L167.3,31.4L167.3,31.4z M161,49.4c1.1-0.6,2.1-1.4,3-2.5v-2.7H157c-1.2,0-2.1,0.2-2.8,0.8s-1,1.2-1,2.2s0.4,1.8,1.1,2.3
		c0.8,0.5,1.7,0.8,3,0.8S159.9,50,161,49.4L161,49.4L161,49.4z"/>
	<path class="st0" d="M178.7,54.1c-1.7-0.8-2.9-1.8-3.8-3.1c-0.9-1.3-1.3-2.7-1.4-4.3h6.1c0.2,1,0.8,1.8,1.7,2.4
		c0.9,0.6,2.1,0.9,3.6,0.9c1.6,0,2.8-0.3,3.5-0.8s1.1-1.3,1.1-2.2s-0.3-1.5-0.9-1.8s-1.4-0.6-2.5-0.7l-4.3-0.4
		c-2.5-0.3-4.5-1-5.8-2.2s-1.9-2.8-1.9-4.8c0-1.6,0.4-3,1.3-4.2c0.9-1.2,2.1-2.2,3.6-2.8c1.6-0.7,3.4-1,5.5-1c3.1,0,5.6,0.7,7.4,2
		s2.8,3.3,3,5.7h-6.1c-0.2-0.8-0.6-1.4-1.4-1.9s-1.7-0.7-2.9-0.7c-1.3,0-2.3,0.2-3.1,0.7s-1.1,1.1-1.1,2c0,0.8,0.3,1.3,1,1.7
		c0.6,0.4,1.7,0.7,3.1,0.8l3.9,0.4c2.4,0.2,4.2,0.9,5.5,2c1.3,1.1,1.9,2.8,1.9,5.1c0,2.6-1,4.6-2.9,6.2s-4.6,2.3-8.1,2.3
		C182.4,55.3,180.3,54.9,178.7,54.1L178.7,54.1L178.7,54.1z"/>
	<path class="st0" d="M199.8,54.6V20.4h6.1v12.2h0.9c0.6-1,1.5-1.8,2.8-2.5c1.3-0.7,2.8-1,4.6-1c2.8,0,5,0.9,6.7,2.6
		c1.6,1.7,2.4,4.1,2.4,7v16h-6.1v-14c0-1.8-0.5-3.2-1.4-4.2c-0.9-1-2.2-1.5-3.9-1.5c-1.9,0-3.3,0.6-4.4,1.9s-1.6,3-1.6,5.1v12.7
		H199.8L199.8,54.6L199.8,54.6z"/>
	<path class="st0" d="M229.9,64.4l5.8-12.4l-10.3-22.3h6.8l5,11.7c0.5,1.1,1,2.3,1.4,3.7h0.8c0.3-1.2,0.8-2.5,1.3-3.7l4.9-11.7h6.7
		l-15.8,34.8H229.9L229.9,64.4L229.9,64.4z"/>
</g>
<g>
	<path class="st0" d="M41.7,29.8c0.2,0.1,0.4,0.1,0.6,0c1.4-0.3,1.5-2.2,0.1-2.7c-0.2-0.1-0.4-0.1-0.6,0
		C40.5,27.4,40.3,29.3,41.7,29.8z"/>
	<path class="st0" d="M6,6.5v66.5h66.5V6.5H6z M44.9,21.3L44.9,21.3L44.9,21.3l4.6,5.1l-4.7,4.2c-0.8,0.7-1.7,1.1-2.7,1.1
		c-1,0-1.8-0.4-2.4-1.1s-0.9-1.6-0.8-2.5c0.1-1,0.6-1.9,1.3-2.6L44.9,21.3L44.9,21.3L44.9,21.3z M31,50.6l-0.3-0.3
		c-5.8-6.3-5.4-16.2,0.9-22l9.3-8.6c0.3-0.3,0.7-0.5,1.1-0.5c0.5,0,0.9,0.2,1.2,0.5l0.9,1l-4.6,4.1c-0.9,0.8-1.5,1.9-1.6,3.1
		c-0.1,1.2,0.2,2.3,1,3.2s1.9,1.3,3.1,1.3h0c1.2,0,2.3-0.4,3.2-1.3l4.7-4.2l0.8,0.9l0,0c0.6,0.7,0.6,1.8-0.1,2.4l-9,8.3
		c-0.1,0.1-0.2,0.2-0.3,0.3L41.4,39h0c-1.4,1.2-2.7,2.6-3.7,4.1c-1,1.5-1.9,3.2-2.3,5.1c0,0.2-0.1,0.5-0.1,0.7l0,0.3
		c0,0.2-0.1,0.5-0.1,0.8c-0.1,0.5-0.1,1,0,1.6c0,0.1,0,0.2,0,0.3c0,0.3,0.1,0.6,0.1,1c0,0.2,0.1,0.4,0.1,0.6c0,0,0,0,0,0.1
		c0,0.1,0,0.2,0.1,0.2c0,0.1,0,0.2,0.1,0.2c0.2,0.8,0.6,1.6,1,2.4c0.2,0.3,0.3,0.6,0.5,0.8L31,50.6z M51.3,51.7l-8.6,8
		c-0.7,0.7-1.8,0.7-2.5,0h0c-2.8-2.8-8.3-10.5,2.3-20.3l8.9,9.8C52,49.8,52,51,51.3,51.7z"/>
</g>
</svg>
