<?xml version="1.0" encoding="utf-8"?>
<!-- Generator: Adobe Illustrator 28.4.1, SVG Export Plug-In . SVG Version: 6.00 Build 0)  -->
<svg version="1.1" id="Layer_1" xmlns="http://www.w3.org/2000/svg" xmlns:xlink="http://www.w3.org/1999/xlink" x="0px" y="0px"
	 viewBox="0 0 2000 2000" style="enable-background:new 0 0 2000 2000;" xml:space="preserve">
<style type="text/css">
	.st0{fill:#7500C1;}
	.st1{fill:#FFFFFF;}
</style>
<rect x="0.21" y="0.64" class="st0" width="1999.57" height="1998.71"/>
<g>
	<path class="st1" d="M1026.65,1599.12c-84.75-84.58-250.22-315.02,70.59-611.71l267.58,296.21c19.94,22.19,18.65,56.28-3.38,76.54
		l-258.58,240.41C1081.17,1620.67,1047.56,1620.19,1026.65,1599.12z"/>
	<path class="st1" d="M1351,646.34l-24.12-26.21l-140.22,126.23c-27.5,24.76-62.07,38.27-97.61,38.27h-0.64
		c-36.18,0-68.83-14.47-91.98-40.2c-23.16-25.73-33.93-59.66-30.39-95.68c3.54-35.54,20.58-68.83,48.4-93.59l138.45-124.79
		l-26.85-29.11c-10.13-10.93-23.96-16.56-37.63-16.56c-12.38,0-24.76,4.5-34.57,13.51L772.9,655.83
		c-190.88,175.28-203.42,471.97-28.3,662.68l8.52,9.33l181.07,197.31c-5.31-8.2-10.45-16.56-15.12-25.09
		c-12.38-22.67-22.19-46.79-29.43-71.72c-0.8-2.41-1.61-4.98-2.25-7.56c-0.8-2.41-1.45-5.15-2.25-7.56
		c-0.32-0.8-0.48-1.77-0.64-2.41c-1.61-6.27-2.89-12.22-4.02-18.49c-1.93-9.49-3.06-18.98-4.02-28.46
		c-0.32-2.73-0.48-5.79-0.64-8.68c-0.96-15.92-0.8-31.84,0.8-47.6c0.64-7.56,1.61-15.28,2.73-22.67l1.13-8.68
		c0.96-6.91,2.89-13.67,4.34-20.42c11.58-55,36.66-106.45,68.02-152.61c31.84-45.99,70.59-86.67,111.6-124.3h0.32v-0.32l2.09-1.93
		c3.22-3.06,6.59-6.27,10.13-9.33l270.8-248.45c20.74-19.14,22.35-51.46,3.06-72.2L1351,646.34z"/>
	<path class="st1" d="M1169.77,449.03l-138.62,124.79c-23,20.58-37.15,48.24-40.2,77.51c-2.73,28.78,5.79,55.96,23.96,76.22
		c18.33,20.26,44.54,31.68,73.49,32c29.59,0,58.37-11.1,81.21-32l140.06-126.23l-140.22-152.61l0,0L1169.77,449.03z M1093.23,703.91
		c-5.95,1.45-12.22,1.13-18.01-0.96c-41.97-15.12-38.92-71.08,4.5-81.21c5.95-1.45,12.22-1.13,18.01,0.96
		C1139.7,637.82,1136.64,693.78,1093.23,703.91z"/>
</g>
</svg>
